<svg width="404" height="404" viewBox="0 0 404 404" fill="none" xmlns="http://www.w3.org/2000/svg">
<path d="M404 0H400V4H404V0Z" fill="#F3525A"/>
<path d="M384 0H380V4H384V0Z" fill="#F3525A"/>
<path d="M364 0H360V4H364V0Z" fill="#F3525A"/>
<path d="M344 0H340V4H344V0Z" fill="#F3525A"/>
<path d="M324 0H320V4H324V0Z" fill="#F3525A"/>
<path d="M304 0H300V4H304V0Z" fill="#F3525A"/>
<path d="M284 0H280V4H284V0Z" fill="#F3525A"/>
<path d="M264 0H260V4H264V0Z" fill="#F3525A"/>
<path d="M244 0H240V4H244V0Z" fill="#F3525A"/>
<path d="M224 0H220V4H224V0Z" fill="#F3525A"/>
<path d="M204 0H200V4H204V0Z" fill="#F3525A"/>
<path d="M184 0H180V4H184V0Z" fill="#F3525A"/>
<path d="M164 0H160V4H164V0Z" fill="#F3525A"/>
<path d="M144 0H140V4H144V0Z" fill="#F3525A"/>
<path d="M124 0H120V4H124V0Z" fill="#F3525A"/>
<path d="M104 0H100V4H104V0Z" fill="#F3525A"/>
<path d="M84 0H80V4H84V0Z" fill="#F3525A"/>
<path d="M64 0H60V4H64V0Z" fill="#F3525A"/>
<path d="M44 0H40V4H44V0Z" fill="#F3525A"/>
<path d="M24 0H20V4H24V0Z" fill="#F3525A"/>
<path d="M4 0H0V4H4V0Z" fill="#F3525A"/>
<path d="M404 20H400V24H404V20Z" fill="#F3525A"/>
<path d="M384 20H380V24H384V20Z" fill="#F3525A"/>
<path d="M364 20H360V24H364V20Z" fill="#F3525A"/>
<path d="M344 20H340V24H344V20Z" fill="#F3525A"/>
<path d="M324 20H320V24H324V20Z" fill="#F3525A"/>
<path d="M304 20H300V24H304V20Z" fill="#F3525A"/>
<path d="M284 20H280V24H284V20Z" fill="#F3525A"/>
<path d="M264 20H260V24H264V20Z" fill="#F3525A"/>
<path d="M244 20H240V24H244V20Z" fill="#F3525A"/>
<path d="M224 20H220V24H224V20Z" fill="#F3525A"/>
<path d="M204 20H200V24H204V20Z" fill="#F3525A"/>
<path d="M184 20H180V24H184V20Z" fill="#F3525A"/>
<path d="M164 20H160V24H164V20Z" fill="#F3525A"/>
<path d="M144 20H140V24H144V20Z" fill="#F3525A"/>
<path d="M124 20H120V24H124V20Z" fill="#F3525A"/>
<path d="M104 20H100V24H104V20Z" fill="#F3525A"/>
<path d="M84 20H80V24H84V20Z" fill="#F3525A"/>
<path d="M64 20H60V24H64V20Z" fill="#F3525A"/>
<path d="M44 20H40V24H44V20Z" fill="#F3525A"/>
<path d="M24 20H20V24H24V20Z" fill="#F3525A"/>
<path d="M4 20H0V24H4V20Z" fill="#F3525A"/>
<path d="M404 40H400V44H404V40Z" fill="#F3525A"/>
<path d="M384 40H380V44H384V40Z" fill="#F3525A"/>
<path d="M364 40H360V44H364V40Z" fill="#F3525A"/>
<path d="M344 40H340V44H344V40Z" fill="#F3525A"/>
<path d="M324 40H320V44H324V40Z" fill="#F3525A"/>
<path d="M304 40H300V44H304V40Z" fill="#F3525A"/>
<path d="M284 40H280V44H284V40Z" fill="#F3525A"/>
<path d="M264 40H260V44H264V40Z" fill="#F3525A"/>
<path d="M244 40H240V44H244V40Z" fill="#F3525A"/>
<path d="M224 40H220V44H224V40Z" fill="#F3525A"/>
<path d="M204 40H200V44H204V40Z" fill="#F3525A"/>
<path d="M184 40H180V44H184V40Z" fill="#F3525A"/>
<path d="M164 40H160V44H164V40Z" fill="#F3525A"/>
<path d="M144 40H140V44H144V40Z" fill="#F3525A"/>
<path d="M124 40H120V44H124V40Z" fill="#F3525A"/>
<path d="M104 40H100V44H104V40Z" fill="#F3525A"/>
<path d="M84 40H80V44H84V40Z" fill="#F3525A"/>
<path d="M64 40H60V44H64V40Z" fill="#F3525A"/>
<path d="M44 40H40V44H44V40Z" fill="#F3525A"/>
<path d="M24 40H20V44H24V40Z" fill="#F3525A"/>
<path d="M4 40H0V44H4V40Z" fill="#F3525A"/>
<path d="M404 60H400V64H404V60Z" fill="#F3525A"/>
<path d="M384 60H380V64H384V60Z" fill="#F3525A"/>
<path d="M364 60H360V64H364V60Z" fill="#F3525A"/>
<path d="M344 60H340V64H344V60Z" fill="#F3525A"/>
<path d="M324 60H320V64H324V60Z" fill="#F3525A"/>
<path d="M304 60H300V64H304V60Z" fill="#F3525A"/>
<path d="M284 60H280V64H284V60Z" fill="#F3525A"/>
<path d="M264 60H260V64H264V60Z" fill="#F3525A"/>
<path d="M244 60H240V64H244V60Z" fill="#F3525A"/>
<path d="M224 60H220V64H224V60Z" fill="#F3525A"/>
<path d="M204 60H200V64H204V60Z" fill="#F3525A"/>
<path d="M184 60H180V64H184V60Z" fill="#F3525A"/>
<path d="M164 60H160V64H164V60Z" fill="#F3525A"/>
<path d="M144 60H140V64H144V60Z" fill="#F3525A"/>
<path d="M124 60H120V64H124V60Z" fill="#F3525A"/>
<path d="M104 60H100V64H104V60Z" fill="#F3525A"/>
<path d="M84 60H80V64H84V60Z" fill="#F3525A"/>
<path d="M64 60H60V64H64V60Z" fill="#F3525A"/>
<path d="M44 60H40V64H44V60Z" fill="#F3525A"/>
<path d="M24 60H20V64H24V60Z" fill="#F3525A"/>
<path d="M4 60H0V64H4V60Z" fill="#F3525A"/>
<path d="M404 80H400V84H404V80Z" fill="#F3525A"/>
<path d="M384 80H380V84H384V80Z" fill="#F3525A"/>
<path d="M364 80H360V84H364V80Z" fill="#F3525A"/>
<path d="M344 80H340V84H344V80Z" fill="#F3525A"/>
<path d="M324 80H320V84H324V80Z" fill="#F3525A"/>
<path d="M304 80H300V84H304V80Z" fill="#F3525A"/>
<path d="M284 80H280V84H284V80Z" fill="#F3525A"/>
<path d="M264 80H260V84H264V80Z" fill="#F3525A"/>
<path d="M244 80H240V84H244V80Z" fill="#F3525A"/>
<path d="M224 80H220V84H224V80Z" fill="#F3525A"/>
<path d="M204 80H200V84H204V80Z" fill="#F3525A"/>
<path d="M184 80H180V84H184V80Z" fill="#F3525A"/>
<path d="M164 80H160V84H164V80Z" fill="#F3525A"/>
<path d="M144 80H140V84H144V80Z" fill="#F3525A"/>
<path d="M124 80H120V84H124V80Z" fill="#F3525A"/>
<path d="M104 80H100V84H104V80Z" fill="#F3525A"/>
<path d="M84 80H80V84H84V80Z" fill="#F3525A"/>
<path d="M64 80H60V84H64V80Z" fill="#F3525A"/>
<path d="M44 80H40V84H44V80Z" fill="#F3525A"/>
<path d="M24 80H20V84H24V80Z" fill="#F3525A"/>
<path d="M4 80H0V84H4V80Z" fill="#F3525A"/>
<path d="M404 100H400V104H404V100Z" fill="#F3525A"/>
<path d="M384 100H380V104H384V100Z" fill="#F3525A"/>
<path d="M364 100H360V104H364V100Z" fill="#F3525A"/>
<path d="M344 100H340V104H344V100Z" fill="#F3525A"/>
<path d="M324 100H320V104H324V100Z" fill="#F3525A"/>
<path d="M304 100H300V104H304V100Z" fill="#F3525A"/>
<path d="M284 100H280V104H284V100Z" fill="#F3525A"/>
<path d="M264 100H260V104H264V100Z" fill="#F3525A"/>
<path d="M244 100H240V104H244V100Z" fill="#F3525A"/>
<path d="M224 100H220V104H224V100Z" fill="#F3525A"/>
<path d="M204 100H200V104H204V100Z" fill="#F3525A"/>
<path d="M184 100H180V104H184V100Z" fill="#F3525A"/>
<path d="M164 100H160V104H164V100Z" fill="#F3525A"/>
<path d="M144 100H140V104H144V100Z" fill="#F3525A"/>
<path d="M124 100H120V104H124V100Z" fill="#F3525A"/>
<path d="M104 100H100V104H104V100Z" fill="#F3525A"/>
<path d="M84 100H80V104H84V100Z" fill="#F3525A"/>
<path d="M64 100H60V104H64V100Z" fill="#F3525A"/>
<path d="M44 100H40V104H44V100Z" fill="#F3525A"/>
<path d="M24 100H20V104H24V100Z" fill="#F3525A"/>
<path d="M4 100H0V104H4V100Z" fill="#F3525A"/>
<path d="M404 120H400V124H404V120Z" fill="#F3525A"/>
<path d="M384 120H380V124H384V120Z" fill="#F3525A"/>
<path d="M364 120H360V124H364V120Z" fill="#F3525A"/>
<path d="M344 120H340V124H344V120Z" fill="#F3525A"/>
<path d="M324 120H320V124H324V120Z" fill="#F3525A"/>
<path d="M304 120H300V124H304V120Z" fill="#F3525A"/>
<path d="M284 120H280V124H284V120Z" fill="#F3525A"/>
<path d="M264 120H260V124H264V120Z" fill="#F3525A"/>
<path d="M244 120H240V124H244V120Z" fill="#F3525A"/>
<path d="M224 120H220V124H224V120Z" fill="#F3525A"/>
<path d="M204 120H200V124H204V120Z" fill="#F3525A"/>
<path d="M184 120H180V124H184V120Z" fill="#F3525A"/>
<path d="M164 120H160V124H164V120Z" fill="#F3525A"/>
<path d="M144 120H140V124H144V120Z" fill="#F3525A"/>
<path d="M124 120H120V124H124V120Z" fill="#F3525A"/>
<path d="M104 120H100V124H104V120Z" fill="#F3525A"/>
<path d="M84 120H80V124H84V120Z" fill="#F3525A"/>
<path d="M64 120H60V124H64V120Z" fill="#F3525A"/>
<path d="M44 120H40V124H44V120Z" fill="#F3525A"/>
<path d="M24 120H20V124H24V120Z" fill="#F3525A"/>
<path d="M4 120H0V124H4V120Z" fill="#F3525A"/>
<path d="M404 140H400V144H404V140Z" fill="#F3525A"/>
<path d="M384 140H380V144H384V140Z" fill="#F3525A"/>
<path d="M364 140H360V144H364V140Z" fill="#F3525A"/>
<path d="M344 140H340V144H344V140Z" fill="#F3525A"/>
<path d="M324 140H320V144H324V140Z" fill="#F3525A"/>
<path d="M304 140H300V144H304V140Z" fill="#F3525A"/>
<path d="M284 140H280V144H284V140Z" fill="#F3525A"/>
<path d="M264 140H260V144H264V140Z" fill="#F3525A"/>
<path d="M244 140H240V144H244V140Z" fill="#F3525A"/>
<path d="M224 140H220V144H224V140Z" fill="#F3525A"/>
<path d="M204 140H200V144H204V140Z" fill="#F3525A"/>
<path d="M184 140H180V144H184V140Z" fill="#F3525A"/>
<path d="M164 140H160V144H164V140Z" fill="#F3525A"/>
<path d="M144 140H140V144H144V140Z" fill="#F3525A"/>
<path d="M124 140H120V144H124V140Z" fill="#F3525A"/>
<path d="M104 140H100V144H104V140Z" fill="#F3525A"/>
<path d="M84 140H80V144H84V140Z" fill="#F3525A"/>
<path d="M64 140H60V144H64V140Z" fill="#F3525A"/>
<path d="M44 140H40V144H44V140Z" fill="#F3525A"/>
<path d="M24 140H20V144H24V140Z" fill="#F3525A"/>
<path d="M4 140H0V144H4V140Z" fill="#F3525A"/>
<path d="M404 160H400V164H404V160Z" fill="#F3525A"/>
<path d="M384 160H380V164H384V160Z" fill="#F3525A"/>
<path d="M364 160H360V164H364V160Z" fill="#F3525A"/>
<path d="M344 160H340V164H344V160Z" fill="#F3525A"/>
<path d="M324 160H320V164H324V160Z" fill="#F3525A"/>
<path d="M304 160H300V164H304V160Z" fill="#F3525A"/>
<path d="M284 160H280V164H284V160Z" fill="#F3525A"/>
<path d="M264 160H260V164H264V160Z" fill="#F3525A"/>
<path d="M244 160H240V164H244V160Z" fill="#F3525A"/>
<path d="M224 160H220V164H224V160Z" fill="#F3525A"/>
<path d="M204 160H200V164H204V160Z" fill="#F3525A"/>
<path d="M184 160H180V164H184V160Z" fill="#F3525A"/>
<path d="M164 160H160V164H164V160Z" fill="#F3525A"/>
<path d="M144 160H140V164H144V160Z" fill="#F3525A"/>
<path d="M124 160H120V164H124V160Z" fill="#F3525A"/>
<path d="M104 160H100V164H104V160Z" fill="#F3525A"/>
<path d="M84 160H80V164H84V160Z" fill="#F3525A"/>
<path d="M64 160H60V164H64V160Z" fill="#F3525A"/>
<path d="M44 160H40V164H44V160Z" fill="#F3525A"/>
<path d="M24 160H20V164H24V160Z" fill="#F3525A"/>
<path d="M4 160H0V164H4V160Z" fill="#F3525A"/>
<path d="M404 180H400V184H404V180Z" fill="#F3525A"/>
<path d="M384 180H380V184H384V180Z" fill="#F3525A"/>
<path d="M364 180H360V184H364V180Z" fill="#F3525A"/>
<path d="M344 180H340V184H344V180Z" fill="#F3525A"/>
<path d="M324 180H320V184H324V180Z" fill="#F3525A"/>
<path d="M304 180H300V184H304V180Z" fill="#F3525A"/>
<path d="M284 180H280V184H284V180Z" fill="#F3525A"/>
<path d="M264 180H260V184H264V180Z" fill="#F3525A"/>
<path d="M244 180H240V184H244V180Z" fill="#F3525A"/>
<path d="M224 180H220V184H224V180Z" fill="#F3525A"/>
<path d="M204 180H200V184H204V180Z" fill="#F3525A"/>
<path d="M184 180H180V184H184V180Z" fill="#F3525A"/>
<path d="M164 180H160V184H164V180Z" fill="#F3525A"/>
<path d="M144 180H140V184H144V180Z" fill="#F3525A"/>
<path d="M124 180H120V184H124V180Z" fill="#F3525A"/>
<path d="M104 180H100V184H104V180Z" fill="#F3525A"/>
<path d="M84 180H80V184H84V180Z" fill="#F3525A"/>
<path d="M64 180H60V184H64V180Z" fill="#F3525A"/>
<path d="M44 180H40V184H44V180Z" fill="#F3525A"/>
<path d="M24 180H20V184H24V180Z" fill="#F3525A"/>
<path d="M4 180H0V184H4V180Z" fill="#F3525A"/>
<path d="M404 200H400V204H404V200Z" fill="#F3525A"/>
<path d="M384 200H380V204H384V200Z" fill="#F3525A"/>
<path d="M364 200H360V204H364V200Z" fill="#F3525A"/>
<path d="M344 200H340V204H344V200Z" fill="#F3525A"/>
<path d="M324 200H320V204H324V200Z" fill="#F3525A"/>
<path d="M304 200H300V204H304V200Z" fill="#F3525A"/>
<path d="M284 200H280V204H284V200Z" fill="#F3525A"/>
<path d="M264 200H260V204H264V200Z" fill="#F3525A"/>
<path d="M244 200H240V204H244V200Z" fill="#F3525A"/>
<path d="M224 200H220V204H224V200Z" fill="#F3525A"/>
<path d="M204 200H200V204H204V200Z" fill="#F3525A"/>
<path d="M184 200H180V204H184V200Z" fill="#F3525A"/>
<path d="M164 200H160V204H164V200Z" fill="#F3525A"/>
<path d="M144 200H140V204H144V200Z" fill="#F3525A"/>
<path d="M124 200H120V204H124V200Z" fill="#F3525A"/>
<path d="M104 200H100V204H104V200Z" fill="#F3525A"/>
<path d="M84 200H80V204H84V200Z" fill="#F3525A"/>
<path d="M64 200H60V204H64V200Z" fill="#F3525A"/>
<path d="M44 200H40V204H44V200Z" fill="#F3525A"/>
<path d="M24 200H20V204H24V200Z" fill="#F3525A"/>
<path d="M4 200H0V204H4V200Z" fill="#F3525A"/>
<path d="M404 220H400V224H404V220Z" fill="#F3525A"/>
<path d="M384 220H380V224H384V220Z" fill="#F3525A"/>
<path d="M364 220H360V224H364V220Z" fill="#F3525A"/>
<path d="M344 220H340V224H344V220Z" fill="#F3525A"/>
<path d="M324 220H320V224H324V220Z" fill="#F3525A"/>
<path d="M304 220H300V224H304V220Z" fill="#F3525A"/>
<path d="M284 220H280V224H284V220Z" fill="#F3525A"/>
<path d="M264 220H260V224H264V220Z" fill="#F3525A"/>
<path d="M244 220H240V224H244V220Z" fill="#F3525A"/>
<path d="M224 220H220V224H224V220Z" fill="#F3525A"/>
<path d="M204 220H200V224H204V220Z" fill="#F3525A"/>
<path d="M184 220H180V224H184V220Z" fill="#F3525A"/>
<path d="M164 220H160V224H164V220Z" fill="#F3525A"/>
<path d="M144 220H140V224H144V220Z" fill="#F3525A"/>
<path d="M124 220H120V224H124V220Z" fill="#F3525A"/>
<path d="M104 220H100V224H104V220Z" fill="#F3525A"/>
<path d="M84 220H80V224H84V220Z" fill="#F3525A"/>
<path d="M64 220H60V224H64V220Z" fill="#F3525A"/>
<path d="M44 220H40V224H44V220Z" fill="#F3525A"/>
<path d="M24 220H20V224H24V220Z" fill="#F3525A"/>
<path d="M4 220H0V224H4V220Z" fill="#F3525A"/>
<path d="M404 240H400V244H404V240Z" fill="#F3525A"/>
<path d="M384 240H380V244H384V240Z" fill="#F3525A"/>
<path d="M364 240H360V244H364V240Z" fill="#F3525A"/>
<path d="M344 240H340V244H344V240Z" fill="#F3525A"/>
<path d="M324 240H320V244H324V240Z" fill="#F3525A"/>
<path d="M304 240H300V244H304V240Z" fill="#F3525A"/>
<path d="M284 240H280V244H284V240Z" fill="#F3525A"/>
<path d="M264 240H260V244H264V240Z" fill="#F3525A"/>
<path d="M244 240H240V244H244V240Z" fill="#F3525A"/>
<path d="M224 240H220V244H224V240Z" fill="#F3525A"/>
<path d="M204 240H200V244H204V240Z" fill="#F3525A"/>
<path d="M184 240H180V244H184V240Z" fill="#F3525A"/>
<path d="M164 240H160V244H164V240Z" fill="#F3525A"/>
<path d="M144 240H140V244H144V240Z" fill="#F3525A"/>
<path d="M124 240H120V244H124V240Z" fill="#F3525A"/>
<path d="M104 240H100V244H104V240Z" fill="#F3525A"/>
<path d="M84 240H80V244H84V240Z" fill="#F3525A"/>
<path d="M64 240H60V244H64V240Z" fill="#F3525A"/>
<path d="M44 240H40V244H44V240Z" fill="#F3525A"/>
<path d="M24 240H20V244H24V240Z" fill="#F3525A"/>
<path d="M4 240H0V244H4V240Z" fill="#F3525A"/>
<path d="M404 260H400V264H404V260Z" fill="#F3525A"/>
<path d="M384 260H380V264H384V260Z" fill="#F3525A"/>
<path d="M364 260H360V264H364V260Z" fill="#F3525A"/>
<path d="M344 260H340V264H344V260Z" fill="#F3525A"/>
<path d="M324 260H320V264H324V260Z" fill="#F3525A"/>
<path d="M304 260H300V264H304V260Z" fill="#F3525A"/>
<path d="M284 260H280V264H284V260Z" fill="#F3525A"/>
<path d="M264 260H260V264H264V260Z" fill="#F3525A"/>
<path d="M244 260H240V264H244V260Z" fill="#F3525A"/>
<path d="M224 260H220V264H224V260Z" fill="#F3525A"/>
<path d="M204 260H200V264H204V260Z" fill="#F3525A"/>
<path d="M184 260H180V264H184V260Z" fill="#F3525A"/>
<path d="M164 260H160V264H164V260Z" fill="#F3525A"/>
<path d="M144 260H140V264H144V260Z" fill="#F3525A"/>
<path d="M124 260H120V264H124V260Z" fill="#F3525A"/>
<path d="M104 260H100V264H104V260Z" fill="#F3525A"/>
<path d="M84 260H80V264H84V260Z" fill="#F3525A"/>
<path d="M64 260H60V264H64V260Z" fill="#F3525A"/>
<path d="M44 260H40V264H44V260Z" fill="#F3525A"/>
<path d="M24 260H20V264H24V260Z" fill="#F3525A"/>
<path d="M4 260H0V264H4V260Z" fill="#F3525A"/>
<path d="M404 280H400V284H404V280Z" fill="#F3525A"/>
<path d="M384 280H380V284H384V280Z" fill="#F3525A"/>
<path d="M364 280H360V284H364V280Z" fill="#F3525A"/>
<path d="M344 280H340V284H344V280Z" fill="#F3525A"/>
<path d="M324 280H320V284H324V280Z" fill="#F3525A"/>
<path d="M304 280H300V284H304V280Z" fill="#F3525A"/>
<path d="M284 280H280V284H284V280Z" fill="#F3525A"/>
<path d="M264 280H260V284H264V280Z" fill="#F3525A"/>
<path d="M244 280H240V284H244V280Z" fill="#F3525A"/>
<path d="M224 280H220V284H224V280Z" fill="#F3525A"/>
<path d="M204 280H200V284H204V280Z" fill="#F3525A"/>
<path d="M184 280H180V284H184V280Z" fill="#F3525A"/>
<path d="M164 280H160V284H164V280Z" fill="#F3525A"/>
<path d="M144 280H140V284H144V280Z" fill="#F3525A"/>
<path d="M124 280H120V284H124V280Z" fill="#F3525A"/>
<path d="M104 280H100V284H104V280Z" fill="#F3525A"/>
<path d="M84 280H80V284H84V280Z" fill="#F3525A"/>
<path d="M64 280H60V284H64V280Z" fill="#F3525A"/>
<path d="M44 280H40V284H44V280Z" fill="#F3525A"/>
<path d="M24 280H20V284H24V280Z" fill="#F3525A"/>
<path d="M4 280H0V284H4V280Z" fill="#F3525A"/>
<path d="M404 300H400V304H404V300Z" fill="#F3525A"/>
<path d="M384 300H380V304H384V300Z" fill="#F3525A"/>
<path d="M364 300H360V304H364V300Z" fill="#F3525A"/>
<path d="M344 300H340V304H344V300Z" fill="#F3525A"/>
<path d="M324 300H320V304H324V300Z" fill="#F3525A"/>
<path d="M304 300H300V304H304V300Z" fill="#F3525A"/>
<path d="M284 300H280V304H284V300Z" fill="#F3525A"/>
<path d="M264 300H260V304H264V300Z" fill="#F3525A"/>
<path d="M244 300H240V304H244V300Z" fill="#F3525A"/>
<path d="M224 300H220V304H224V300Z" fill="#F3525A"/>
<path d="M204 300H200V304H204V300Z" fill="#F3525A"/>
<path d="M184 300H180V304H184V300Z" fill="#F3525A"/>
<path d="M164 300H160V304H164V300Z" fill="#F3525A"/>
<path d="M144 300H140V304H144V300Z" fill="#F3525A"/>
<path d="M124 300H120V304H124V300Z" fill="#F3525A"/>
<path d="M104 300H100V304H104V300Z" fill="#F3525A"/>
<path d="M84 300H80V304H84V300Z" fill="#F3525A"/>
<path d="M64 300H60V304H64V300Z" fill="#F3525A"/>
<path d="M44 300H40V304H44V300Z" fill="#F3525A"/>
<path d="M24 300H20V304H24V300Z" fill="#F3525A"/>
<path d="M4 300H0V304H4V300Z" fill="#F3525A"/>
<path d="M404 320H400V324H404V320Z" fill="#F3525A"/>
<path d="M384 320H380V324H384V320Z" fill="#F3525A"/>
<path d="M364 320H360V324H364V320Z" fill="#F3525A"/>
<path d="M344 320H340V324H344V320Z" fill="#F3525A"/>
<path d="M324 320H320V324H324V320Z" fill="#F3525A"/>
<path d="M304 320H300V324H304V320Z" fill="#F3525A"/>
<path d="M284 320H280V324H284V320Z" fill="#F3525A"/>
<path d="M264 320H260V324H264V320Z" fill="#F3525A"/>
<path d="M244 320H240V324H244V320Z" fill="#F3525A"/>
<path d="M224 320H220V324H224V320Z" fill="#F3525A"/>
<path d="M204 320H200V324H204V320Z" fill="#F3525A"/>
<path d="M184 320H180V324H184V320Z" fill="#F3525A"/>
<path d="M164 320H160V324H164V320Z" fill="#F3525A"/>
<path d="M144 320H140V324H144V320Z" fill="#F3525A"/>
<path d="M124 320H120V324H124V320Z" fill="#F3525A"/>
<path d="M104 320H100V324H104V320Z" fill="#F3525A"/>
<path d="M84 320H80V324H84V320Z" fill="#F3525A"/>
<path d="M64 320H60V324H64V320Z" fill="#F3525A"/>
<path d="M44 320H40V324H44V320Z" fill="#F3525A"/>
<path d="M24 320H20V324H24V320Z" fill="#F3525A"/>
<path d="M4 320H0V324H4V320Z" fill="#F3525A"/>
<path d="M404 340H400V344H404V340Z" fill="#F3525A"/>
<path d="M384 340H380V344H384V340Z" fill="#F3525A"/>
<path d="M364 340H360V344H364V340Z" fill="#F3525A"/>
<path d="M344 340H340V344H344V340Z" fill="#F3525A"/>
<path d="M324 340H320V344H324V340Z" fill="#F3525A"/>
<path d="M304 340H300V344H304V340Z" fill="#F3525A"/>
<path d="M284 340H280V344H284V340Z" fill="#F3525A"/>
<path d="M264 340H260V344H264V340Z" fill="#F3525A"/>
<path d="M244 340H240V344H244V340Z" fill="#F3525A"/>
<path d="M224 340H220V344H224V340Z" fill="#F3525A"/>
<path d="M204 340H200V344H204V340Z" fill="#F3525A"/>
<path d="M184 340H180V344H184V340Z" fill="#F3525A"/>
<path d="M164 340H160V344H164V340Z" fill="#F3525A"/>
<path d="M144 340H140V344H144V340Z" fill="#F3525A"/>
<path d="M124 340H120V344H124V340Z" fill="#F3525A"/>
<path d="M104 340H100V344H104V340Z" fill="#F3525A"/>
<path d="M84 340H80V344H84V340Z" fill="#F3525A"/>
<path d="M64 340H60V344H64V340Z" fill="#F3525A"/>
<path d="M44 340H40V344H44V340Z" fill="#F3525A"/>
<path d="M24 340H20V344H24V340Z" fill="#F3525A"/>
<path d="M4 340H0V344H4V340Z" fill="#F3525A"/>
<path d="M404 360H400V364H404V360Z" fill="#F3525A"/>
<path d="M384 360H380V364H384V360Z" fill="#F3525A"/>
<path d="M364 360H360V364H364V360Z" fill="#F3525A"/>
<path d="M344 360H340V364H344V360Z" fill="#F3525A"/>
<path d="M324 360H320V364H324V360Z" fill="#F3525A"/>
<path d="M304 360H300V364H304V360Z" fill="#F3525A"/>
<path d="M284 360H280V364H284V360Z" fill="#F3525A"/>
<path d="M264 360H260V364H264V360Z" fill="#F3525A"/>
<path d="M244 360H240V364H244V360Z" fill="#F3525A"/>
<path d="M224 360H220V364H224V360Z" fill="#F3525A"/>
<path d="M204 360H200V364H204V360Z" fill="#F3525A"/>
<path d="M184 360H180V364H184V360Z" fill="#F3525A"/>
<path d="M164 360H160V364H164V360Z" fill="#F3525A"/>
<path d="M144 360H140V364H144V360Z" fill="#F3525A"/>
<path d="M124 360H120V364H124V360Z" fill="#F3525A"/>
<path d="M104 360H100V364H104V360Z" fill="#F3525A"/>
<path d="M84 360H80V364H84V360Z" fill="#F3525A"/>
<path d="M64 360H60V364H64V360Z" fill="#F3525A"/>
<path d="M44 360H40V364H44V360Z" fill="#F3525A"/>
<path d="M24 360H20V364H24V360Z" fill="#F3525A"/>
<path d="M4 360H0V364H4V360Z" fill="#F3525A"/>
<path d="M404 380H400V384H404V380Z" fill="#F3525A"/>
<path d="M384 380H380V384H384V380Z" fill="#F3525A"/>
<path d="M364 380H360V384H364V380Z" fill="#F3525A"/>
<path d="M344 380H340V384H344V380Z" fill="#F3525A"/>
<path d="M324 380H320V384H324V380Z" fill="#F3525A"/>
<path d="M304 380H300V384H304V380Z" fill="#F3525A"/>
<path d="M284 380H280V384H284V380Z" fill="#F3525A"/>
<path d="M264 380H260V384H264V380Z" fill="#F3525A"/>
<path d="M244 380H240V384H244V380Z" fill="#F3525A"/>
<path d="M224 380H220V384H224V380Z" fill="#F3525A"/>
<path d="M204 380H200V384H204V380Z" fill="#F3525A"/>
<path d="M184 380H180V384H184V380Z" fill="#F3525A"/>
<path d="M164 380H160V384H164V380Z" fill="#F3525A"/>
<path d="M144 380H140V384H144V380Z" fill="#F3525A"/>
<path d="M124 380H120V384H124V380Z" fill="#F3525A"/>
<path d="M104 380H100V384H104V380Z" fill="#F3525A"/>
<path d="M84 380H80V384H84V380Z" fill="#F3525A"/>
<path d="M64 380H60V384H64V380Z" fill="#F3525A"/>
<path d="M44 380H40V384H44V380Z" fill="#F3525A"/>
<path d="M24 380H20V384H24V380Z" fill="#F3525A"/>
<path d="M4 380H0V384H4V380Z" fill="#F3525A"/>
<path d="M404 400H400V404H404V400Z" fill="#F3525A"/>
<path d="M384 400H380V404H384V400Z" fill="#F3525A"/>
<path d="M364 400H360V404H364V400Z" fill="#F3525A"/>
<path d="M344 400H340V404H344V400Z" fill="#F3525A"/>
<path d="M324 400H320V404H324V400Z" fill="#F3525A"/>
<path d="M304 400H300V404H304V400Z" fill="#F3525A"/>
<path d="M284 400H280V404H284V400Z" fill="#F3525A"/>
<path d="M264 400H260V404H264V400Z" fill="#F3525A"/>
<path d="M244 400H240V404H244V400Z" fill="#F3525A"/>
<path d="M224 400H220V404H224V400Z" fill="#F3525A"/>
<path d="M204 400H200V404H204V400Z" fill="#F3525A"/>
<path d="M184 400H180V404H184V400Z" fill="#F3525A"/>
<path d="M164 400H160V404H164V400Z" fill="#F3525A"/>
<path d="M144 400H140V404H144V400Z" fill="#F3525A"/>
<path d="M124 400H120V404H124V400Z" fill="#F3525A"/>
<path d="M104 400H100V404H104V400Z" fill="#F3525A"/>
<path d="M84 400H80V404H84V400Z" fill="#F3525A"/>
<path d="M64 400H60V404H64V400Z" fill="#F3525A"/>
<path d="M44 400H40V404H44V400Z" fill="#F3525A"/>
<path d="M24 400H20V404H24V400Z" fill="#F3525A"/>
<path d="M4 400H0V404H4V400Z" fill="#F3525A"/>
</svg>
