<svg width="290" height="404" viewBox="0 0 290 404" fill="none" xmlns="http://www.w3.org/2000/svg">
<path d="M290 0H287.129V4H290V0Z" fill="#F3525A"/>
<path d="M275.644 0H272.772V4H275.644V0Z" fill="#F3525A"/>
<path d="M261.287 0H258.416V4H261.287V0Z" fill="#F3525A"/>
<path d="M246.931 0H244.059V4H246.931V0Z" fill="#F3525A"/>
<path d="M232.574 0H229.703V4H232.574V0Z" fill="#F3525A"/>
<path d="M218.218 0H215.347V4H218.218V0Z" fill="#F3525A"/>
<path d="M203.861 0H200.99V4H203.861V0Z" fill="#F3525A"/>
<path d="M189.505 0H186.634V4H189.505V0Z" fill="#F3525A"/>
<path d="M175.149 0H172.277V4H175.149V0Z" fill="#F3525A"/>
<path d="M160.792 0H157.921V4H160.792V0Z" fill="#F3525A"/>
<path d="M146.436 0H143.564V4H146.436V0Z" fill="#F3525A"/>
<path d="M132.079 0H129.208V4H132.079V0Z" fill="#F3525A"/>
<path d="M117.723 0H114.851V4H117.723V0Z" fill="#F3525A"/>
<path d="M103.366 0H100.495V4H103.366V0Z" fill="#F3525A"/>
<path d="M89.0099 0H86.1386V4H89.0099V0Z" fill="#F3525A"/>
<path d="M74.6535 0H71.7822V4H74.6535V0Z" fill="#F3525A"/>
<path d="M60.297 0H57.4258V4H60.297V0Z" fill="#F3525A"/>
<path d="M45.9406 0H43.0693V4H45.9406V0Z" fill="#F3525A"/>
<path d="M31.5842 0H28.7129V4H31.5842V0Z" fill="#F3525A"/>
<path d="M17.2277 0H14.3564V4H17.2277V0Z" fill="#F3525A"/>
<path d="M2.87128 0H0V4H2.87128V0Z" fill="#F3525A"/>
<path d="M290 20H287.129V24H290V20Z" fill="#F3525A"/>
<path d="M275.644 20H272.772V24H275.644V20Z" fill="#F3525A"/>
<path d="M261.287 20H258.416V24H261.287V20Z" fill="#F3525A"/>
<path d="M246.931 20H244.059V24H246.931V20Z" fill="#F3525A"/>
<path d="M232.574 20H229.703V24H232.574V20Z" fill="#F3525A"/>
<path d="M218.218 20H215.347V24H218.218V20Z" fill="#F3525A"/>
<path d="M203.861 20H200.99V24H203.861V20Z" fill="#F3525A"/>
<path d="M189.505 20H186.634V24H189.505V20Z" fill="#F3525A"/>
<path d="M175.149 20H172.277V24H175.149V20Z" fill="#F3525A"/>
<path d="M160.792 20H157.921V24H160.792V20Z" fill="#F3525A"/>
<path d="M146.436 20H143.564V24H146.436V20Z" fill="#F3525A"/>
<path d="M132.079 20H129.208V24H132.079V20Z" fill="#F3525A"/>
<path d="M117.723 20H114.851V24H117.723V20Z" fill="#F3525A"/>
<path d="M103.366 20H100.495V24H103.366V20Z" fill="#F3525A"/>
<path d="M89.0099 20H86.1386V24H89.0099V20Z" fill="#F3525A"/>
<path d="M74.6535 20H71.7822V24H74.6535V20Z" fill="#F3525A"/>
<path d="M60.297 20H57.4258V24H60.297V20Z" fill="#F3525A"/>
<path d="M45.9406 20H43.0693V24H45.9406V20Z" fill="#F3525A"/>
<path d="M31.5842 20H28.7129V24H31.5842V20Z" fill="#F3525A"/>
<path d="M17.2277 20H14.3564V24H17.2277V20Z" fill="#F3525A"/>
<path d="M2.87128 20H0V24H2.87128V20Z" fill="#F3525A"/>
<path d="M290 40H287.129V44H290V40Z" fill="#F3525A"/>
<path d="M275.644 40H272.772V44H275.644V40Z" fill="#F3525A"/>
<path d="M261.287 40H258.416V44H261.287V40Z" fill="#F3525A"/>
<path d="M246.931 40H244.059V44H246.931V40Z" fill="#F3525A"/>
<path d="M232.574 40H229.703V44H232.574V40Z" fill="#F3525A"/>
<path d="M218.218 40H215.347V44H218.218V40Z" fill="#F3525A"/>
<path d="M203.861 40H200.99V44H203.861V40Z" fill="#F3525A"/>
<path d="M189.505 40H186.634V44H189.505V40Z" fill="#F3525A"/>
<path d="M175.149 40H172.277V44H175.149V40Z" fill="#F3525A"/>
<path d="M160.792 40H157.921V44H160.792V40Z" fill="#F3525A"/>
<path d="M146.436 40H143.564V44H146.436V40Z" fill="#F3525A"/>
<path d="M132.079 40H129.208V44H132.079V40Z" fill="#F3525A"/>
<path d="M117.723 40H114.851V44H117.723V40Z" fill="#F3525A"/>
<path d="M103.366 40H100.495V44H103.366V40Z" fill="#F3525A"/>
<path d="M89.0099 40H86.1386V44H89.0099V40Z" fill="#F3525A"/>
<path d="M74.6535 40H71.7822V44H74.6535V40Z" fill="#F3525A"/>
<path d="M60.297 40H57.4258V44H60.297V40Z" fill="#F3525A"/>
<path d="M45.9406 40H43.0693V44H45.9406V40Z" fill="#F3525A"/>
<path d="M31.5842 40H28.7129V44H31.5842V40Z" fill="#F3525A"/>
<path d="M17.2277 40H14.3564V44H17.2277V40Z" fill="#F3525A"/>
<path d="M2.87128 40H0V44H2.87128V40Z" fill="#F3525A"/>
<path d="M290 60H287.129V64H290V60Z" fill="#F3525A"/>
<path d="M275.644 60H272.772V64H275.644V60Z" fill="#F3525A"/>
<path d="M261.287 60H258.416V64H261.287V60Z" fill="#F3525A"/>
<path d="M246.931 60H244.059V64H246.931V60Z" fill="#F3525A"/>
<path d="M232.574 60H229.703V64H232.574V60Z" fill="#F3525A"/>
<path d="M218.218 60H215.347V64H218.218V60Z" fill="#F3525A"/>
<path d="M203.861 60H200.99V64H203.861V60Z" fill="#F3525A"/>
<path d="M189.505 60H186.634V64H189.505V60Z" fill="#F3525A"/>
<path d="M175.149 60H172.277V64H175.149V60Z" fill="#F3525A"/>
<path d="M160.792 60H157.921V64H160.792V60Z" fill="#F3525A"/>
<path d="M146.436 60H143.564V64H146.436V60Z" fill="#F3525A"/>
<path d="M132.079 60H129.208V64H132.079V60Z" fill="#F3525A"/>
<path d="M117.723 60H114.851V64H117.723V60Z" fill="#F3525A"/>
<path d="M103.366 60H100.495V64H103.366V60Z" fill="#F3525A"/>
<path d="M89.0099 60H86.1386V64H89.0099V60Z" fill="#F3525A"/>
<path d="M74.6535 60H71.7822V64H74.6535V60Z" fill="#F3525A"/>
<path d="M60.297 60H57.4258V64H60.297V60Z" fill="#F3525A"/>
<path d="M45.9406 60H43.0693V64H45.9406V60Z" fill="#F3525A"/>
<path d="M31.5842 60H28.7129V64H31.5842V60Z" fill="#F3525A"/>
<path d="M17.2277 60H14.3564V64H17.2277V60Z" fill="#F3525A"/>
<path d="M2.87128 60H0V64H2.87128V60Z" fill="#F3525A"/>
<path d="M290 80H287.129V84H290V80Z" fill="#F3525A"/>
<path d="M275.644 80H272.772V84H275.644V80Z" fill="#F3525A"/>
<path d="M261.287 80H258.416V84H261.287V80Z" fill="#F3525A"/>
<path d="M246.931 80H244.059V84H246.931V80Z" fill="#F3525A"/>
<path d="M232.574 80H229.703V84H232.574V80Z" fill="#F3525A"/>
<path d="M218.218 80H215.347V84H218.218V80Z" fill="#F3525A"/>
<path d="M203.861 80H200.99V84H203.861V80Z" fill="#F3525A"/>
<path d="M189.505 80H186.634V84H189.505V80Z" fill="#F3525A"/>
<path d="M175.149 80H172.277V84H175.149V80Z" fill="#F3525A"/>
<path d="M160.792 80H157.921V84H160.792V80Z" fill="#F3525A"/>
<path d="M146.436 80H143.564V84H146.436V80Z" fill="#F3525A"/>
<path d="M132.079 80H129.208V84H132.079V80Z" fill="#F3525A"/>
<path d="M117.723 80H114.851V84H117.723V80Z" fill="#F3525A"/>
<path d="M103.366 80H100.495V84H103.366V80Z" fill="#F3525A"/>
<path d="M89.0099 80H86.1386V84H89.0099V80Z" fill="#F3525A"/>
<path d="M74.6535 80H71.7822V84H74.6535V80Z" fill="#F3525A"/>
<path d="M60.297 80H57.4258V84H60.297V80Z" fill="#F3525A"/>
<path d="M45.9406 80H43.0693V84H45.9406V80Z" fill="#F3525A"/>
<path d="M31.5842 80H28.7129V84H31.5842V80Z" fill="#F3525A"/>
<path d="M17.2277 80H14.3564V84H17.2277V80Z" fill="#F3525A"/>
<path d="M2.87128 80H0V84H2.87128V80Z" fill="#F3525A"/>
<path d="M290 100H287.129V104H290V100Z" fill="#F3525A"/>
<path d="M275.644 100H272.772V104H275.644V100Z" fill="#F3525A"/>
<path d="M261.287 100H258.416V104H261.287V100Z" fill="#F3525A"/>
<path d="M246.931 100H244.059V104H246.931V100Z" fill="#F3525A"/>
<path d="M232.574 100H229.703V104H232.574V100Z" fill="#F3525A"/>
<path d="M218.218 100H215.347V104H218.218V100Z" fill="#F3525A"/>
<path d="M203.861 100H200.99V104H203.861V100Z" fill="#F3525A"/>
<path d="M189.505 100H186.634V104H189.505V100Z" fill="#F3525A"/>
<path d="M175.149 100H172.277V104H175.149V100Z" fill="#F3525A"/>
<path d="M160.792 100H157.921V104H160.792V100Z" fill="#F3525A"/>
<path d="M146.436 100H143.564V104H146.436V100Z" fill="#F3525A"/>
<path d="M132.079 100H129.208V104H132.079V100Z" fill="#F3525A"/>
<path d="M117.723 100H114.851V104H117.723V100Z" fill="#F3525A"/>
<path d="M103.366 100H100.495V104H103.366V100Z" fill="#F3525A"/>
<path d="M89.0099 100H86.1386V104H89.0099V100Z" fill="#F3525A"/>
<path d="M74.6535 100H71.7822V104H74.6535V100Z" fill="#F3525A"/>
<path d="M60.297 100H57.4258V104H60.297V100Z" fill="#F3525A"/>
<path d="M45.9406 100H43.0693V104H45.9406V100Z" fill="#F3525A"/>
<path d="M31.5842 100H28.7129V104H31.5842V100Z" fill="#F3525A"/>
<path d="M17.2277 100H14.3564V104H17.2277V100Z" fill="#F3525A"/>
<path d="M2.87128 100H0V104H2.87128V100Z" fill="#F3525A"/>
<path d="M290 120H287.129V124H290V120Z" fill="#F3525A"/>
<path d="M275.644 120H272.772V124H275.644V120Z" fill="#F3525A"/>
<path d="M261.287 120H258.416V124H261.287V120Z" fill="#F3525A"/>
<path d="M246.931 120H244.059V124H246.931V120Z" fill="#F3525A"/>
<path d="M232.574 120H229.703V124H232.574V120Z" fill="#F3525A"/>
<path d="M218.218 120H215.347V124H218.218V120Z" fill="#F3525A"/>
<path d="M203.861 120H200.99V124H203.861V120Z" fill="#F3525A"/>
<path d="M189.505 120H186.634V124H189.505V120Z" fill="#F3525A"/>
<path d="M175.149 120H172.277V124H175.149V120Z" fill="#F3525A"/>
<path d="M160.792 120H157.921V124H160.792V120Z" fill="#F3525A"/>
<path d="M146.436 120H143.564V124H146.436V120Z" fill="#F3525A"/>
<path d="M132.079 120H129.208V124H132.079V120Z" fill="#F3525A"/>
<path d="M117.723 120H114.851V124H117.723V120Z" fill="#F3525A"/>
<path d="M103.366 120H100.495V124H103.366V120Z" fill="#F3525A"/>
<path d="M89.0099 120H86.1386V124H89.0099V120Z" fill="#F3525A"/>
<path d="M74.6535 120H71.7822V124H74.6535V120Z" fill="#F3525A"/>
<path d="M60.297 120H57.4258V124H60.297V120Z" fill="#F3525A"/>
<path d="M45.9406 120H43.0693V124H45.9406V120Z" fill="#F3525A"/>
<path d="M31.5842 120H28.7129V124H31.5842V120Z" fill="#F3525A"/>
<path d="M17.2277 120H14.3564V124H17.2277V120Z" fill="#F3525A"/>
<path d="M2.87128 120H0V124H2.87128V120Z" fill="#F3525A"/>
<path d="M290 140H287.129V144H290V140Z" fill="#F3525A"/>
<path d="M275.644 140H272.772V144H275.644V140Z" fill="#F3525A"/>
<path d="M261.287 140H258.416V144H261.287V140Z" fill="#F3525A"/>
<path d="M246.931 140H244.059V144H246.931V140Z" fill="#F3525A"/>
<path d="M232.574 140H229.703V144H232.574V140Z" fill="#F3525A"/>
<path d="M218.218 140H215.347V144H218.218V140Z" fill="#F3525A"/>
<path d="M203.861 140H200.99V144H203.861V140Z" fill="#F3525A"/>
<path d="M189.505 140H186.634V144H189.505V140Z" fill="#F3525A"/>
<path d="M175.149 140H172.277V144H175.149V140Z" fill="#F3525A"/>
<path d="M160.792 140H157.921V144H160.792V140Z" fill="#F3525A"/>
<path d="M146.436 140H143.564V144H146.436V140Z" fill="#F3525A"/>
<path d="M132.079 140H129.208V144H132.079V140Z" fill="#F3525A"/>
<path d="M117.723 140H114.851V144H117.723V140Z" fill="#F3525A"/>
<path d="M103.366 140H100.495V144H103.366V140Z" fill="#F3525A"/>
<path d="M89.0099 140H86.1386V144H89.0099V140Z" fill="#F3525A"/>
<path d="M74.6535 140H71.7822V144H74.6535V140Z" fill="#F3525A"/>
<path d="M60.297 140H57.4258V144H60.297V140Z" fill="#F3525A"/>
<path d="M45.9406 140H43.0693V144H45.9406V140Z" fill="#F3525A"/>
<path d="M31.5842 140H28.7129V144H31.5842V140Z" fill="#F3525A"/>
<path d="M17.2277 140H14.3564V144H17.2277V140Z" fill="#F3525A"/>
<path d="M2.87128 140H0V144H2.87128V140Z" fill="#F3525A"/>
<path d="M290 160H287.129V164H290V160Z" fill="#F3525A"/>
<path d="M275.644 160H272.772V164H275.644V160Z" fill="#F3525A"/>
<path d="M261.287 160H258.416V164H261.287V160Z" fill="#F3525A"/>
<path d="M246.931 160H244.059V164H246.931V160Z" fill="#F3525A"/>
<path d="M232.574 160H229.703V164H232.574V160Z" fill="#F3525A"/>
<path d="M218.218 160H215.347V164H218.218V160Z" fill="#F3525A"/>
<path d="M203.861 160H200.99V164H203.861V160Z" fill="#F3525A"/>
<path d="M189.505 160H186.634V164H189.505V160Z" fill="#F3525A"/>
<path d="M175.149 160H172.277V164H175.149V160Z" fill="#F3525A"/>
<path d="M160.792 160H157.921V164H160.792V160Z" fill="#F3525A"/>
<path d="M146.436 160H143.564V164H146.436V160Z" fill="#F3525A"/>
<path d="M132.079 160H129.208V164H132.079V160Z" fill="#F3525A"/>
<path d="M117.723 160H114.851V164H117.723V160Z" fill="#F3525A"/>
<path d="M103.366 160H100.495V164H103.366V160Z" fill="#F3525A"/>
<path d="M89.0099 160H86.1386V164H89.0099V160Z" fill="#F3525A"/>
<path d="M74.6535 160H71.7822V164H74.6535V160Z" fill="#F3525A"/>
<path d="M60.297 160H57.4258V164H60.297V160Z" fill="#F3525A"/>
<path d="M45.9406 160H43.0693V164H45.9406V160Z" fill="#F3525A"/>
<path d="M31.5842 160H28.7129V164H31.5842V160Z" fill="#F3525A"/>
<path d="M17.2277 160H14.3564V164H17.2277V160Z" fill="#F3525A"/>
<path d="M2.87128 160H0V164H2.87128V160Z" fill="#F3525A"/>
<path d="M290 180H287.129V184H290V180Z" fill="#F3525A"/>
<path d="M275.644 180H272.772V184H275.644V180Z" fill="#F3525A"/>
<path d="M261.287 180H258.416V184H261.287V180Z" fill="#F3525A"/>
<path d="M246.931 180H244.059V184H246.931V180Z" fill="#F3525A"/>
<path d="M232.574 180H229.703V184H232.574V180Z" fill="#F3525A"/>
<path d="M218.218 180H215.347V184H218.218V180Z" fill="#F3525A"/>
<path d="M203.861 180H200.99V184H203.861V180Z" fill="#F3525A"/>
<path d="M189.505 180H186.634V184H189.505V180Z" fill="#F3525A"/>
<path d="M175.149 180H172.277V184H175.149V180Z" fill="#F3525A"/>
<path d="M160.792 180H157.921V184H160.792V180Z" fill="#F3525A"/>
<path d="M146.436 180H143.564V184H146.436V180Z" fill="#F3525A"/>
<path d="M132.079 180H129.208V184H132.079V180Z" fill="#F3525A"/>
<path d="M117.723 180H114.851V184H117.723V180Z" fill="#F3525A"/>
<path d="M103.366 180H100.495V184H103.366V180Z" fill="#F3525A"/>
<path d="M89.0099 180H86.1386V184H89.0099V180Z" fill="#F3525A"/>
<path d="M74.6535 180H71.7822V184H74.6535V180Z" fill="#F3525A"/>
<path d="M60.297 180H57.4258V184H60.297V180Z" fill="#F3525A"/>
<path d="M45.9406 180H43.0693V184H45.9406V180Z" fill="#F3525A"/>
<path d="M31.5842 180H28.7129V184H31.5842V180Z" fill="#F3525A"/>
<path d="M17.2277 180H14.3564V184H17.2277V180Z" fill="#F3525A"/>
<path d="M2.87128 180H0V184H2.87128V180Z" fill="#F3525A"/>
<path d="M290 200H287.129V204H290V200Z" fill="#F3525A"/>
<path d="M275.644 200H272.772V204H275.644V200Z" fill="#F3525A"/>
<path d="M261.287 200H258.416V204H261.287V200Z" fill="#F3525A"/>
<path d="M246.931 200H244.059V204H246.931V200Z" fill="#F3525A"/>
<path d="M232.574 200H229.703V204H232.574V200Z" fill="#F3525A"/>
<path d="M218.218 200H215.347V204H218.218V200Z" fill="#F3525A"/>
<path d="M203.861 200H200.99V204H203.861V200Z" fill="#F3525A"/>
<path d="M189.505 200H186.634V204H189.505V200Z" fill="#F3525A"/>
<path d="M175.149 200H172.277V204H175.149V200Z" fill="#F3525A"/>
<path d="M160.792 200H157.921V204H160.792V200Z" fill="#F3525A"/>
<path d="M146.436 200H143.564V204H146.436V200Z" fill="#F3525A"/>
<path d="M132.079 200H129.208V204H132.079V200Z" fill="#F3525A"/>
<path d="M117.723 200H114.851V204H117.723V200Z" fill="#F3525A"/>
<path d="M103.366 200H100.495V204H103.366V200Z" fill="#F3525A"/>
<path d="M89.0099 200H86.1386V204H89.0099V200Z" fill="#F3525A"/>
<path d="M74.6535 200H71.7822V204H74.6535V200Z" fill="#F3525A"/>
<path d="M60.297 200H57.4258V204H60.297V200Z" fill="#F3525A"/>
<path d="M45.9406 200H43.0693V204H45.9406V200Z" fill="#F3525A"/>
<path d="M31.5842 200H28.7129V204H31.5842V200Z" fill="#F3525A"/>
<path d="M17.2277 200H14.3564V204H17.2277V200Z" fill="#F3525A"/>
<path d="M2.87128 200H0V204H2.87128V200Z" fill="#F3525A"/>
<path d="M290 220H287.129V224H290V220Z" fill="#F3525A"/>
<path d="M275.644 220H272.772V224H275.644V220Z" fill="#F3525A"/>
<path d="M261.287 220H258.416V224H261.287V220Z" fill="#F3525A"/>
<path d="M246.931 220H244.059V224H246.931V220Z" fill="#F3525A"/>
<path d="M232.574 220H229.703V224H232.574V220Z" fill="#F3525A"/>
<path d="M218.218 220H215.347V224H218.218V220Z" fill="#F3525A"/>
<path d="M203.861 220H200.99V224H203.861V220Z" fill="#F3525A"/>
<path d="M189.505 220H186.634V224H189.505V220Z" fill="#F3525A"/>
<path d="M175.149 220H172.277V224H175.149V220Z" fill="#F3525A"/>
<path d="M160.792 220H157.921V224H160.792V220Z" fill="#F3525A"/>
<path d="M146.436 220H143.564V224H146.436V220Z" fill="#F3525A"/>
<path d="M132.079 220H129.208V224H132.079V220Z" fill="#F3525A"/>
<path d="M117.723 220H114.851V224H117.723V220Z" fill="#F3525A"/>
<path d="M103.366 220H100.495V224H103.366V220Z" fill="#F3525A"/>
<path d="M89.0099 220H86.1386V224H89.0099V220Z" fill="#F3525A"/>
<path d="M74.6535 220H71.7822V224H74.6535V220Z" fill="#F3525A"/>
<path d="M60.297 220H57.4258V224H60.297V220Z" fill="#F3525A"/>
<path d="M45.9406 220H43.0693V224H45.9406V220Z" fill="#F3525A"/>
<path d="M31.5842 220H28.7129V224H31.5842V220Z" fill="#F3525A"/>
<path d="M17.2277 220H14.3564V224H17.2277V220Z" fill="#F3525A"/>
<path d="M2.87128 220H0V224H2.87128V220Z" fill="#F3525A"/>
<path d="M290 240H287.129V244H290V240Z" fill="#F3525A"/>
<path d="M275.644 240H272.772V244H275.644V240Z" fill="#F3525A"/>
<path d="M261.287 240H258.416V244H261.287V240Z" fill="#F3525A"/>
<path d="M246.931 240H244.059V244H246.931V240Z" fill="#F3525A"/>
<path d="M232.574 240H229.703V244H232.574V240Z" fill="#F3525A"/>
<path d="M218.218 240H215.347V244H218.218V240Z" fill="#F3525A"/>
<path d="M203.861 240H200.99V244H203.861V240Z" fill="#F3525A"/>
<path d="M189.505 240H186.634V244H189.505V240Z" fill="#F3525A"/>
<path d="M175.149 240H172.277V244H175.149V240Z" fill="#F3525A"/>
<path d="M160.792 240H157.921V244H160.792V240Z" fill="#F3525A"/>
<path d="M146.436 240H143.564V244H146.436V240Z" fill="#F3525A"/>
<path d="M132.079 240H129.208V244H132.079V240Z" fill="#F3525A"/>
<path d="M117.723 240H114.851V244H117.723V240Z" fill="#F3525A"/>
<path d="M103.366 240H100.495V244H103.366V240Z" fill="#F3525A"/>
<path d="M89.0099 240H86.1386V244H89.0099V240Z" fill="#F3525A"/>
<path d="M74.6535 240H71.7822V244H74.6535V240Z" fill="#F3525A"/>
<path d="M60.297 240H57.4258V244H60.297V240Z" fill="#F3525A"/>
<path d="M45.9406 240H43.0693V244H45.9406V240Z" fill="#F3525A"/>
<path d="M31.5842 240H28.7129V244H31.5842V240Z" fill="#F3525A"/>
<path d="M17.2277 240H14.3564V244H17.2277V240Z" fill="#F3525A"/>
<path d="M2.87128 240H0V244H2.87128V240Z" fill="#F3525A"/>
<path d="M290 260H287.129V264H290V260Z" fill="#F3525A"/>
<path d="M275.644 260H272.772V264H275.644V260Z" fill="#F3525A"/>
<path d="M261.287 260H258.416V264H261.287V260Z" fill="#F3525A"/>
<path d="M246.931 260H244.059V264H246.931V260Z" fill="#F3525A"/>
<path d="M232.574 260H229.703V264H232.574V260Z" fill="#F3525A"/>
<path d="M218.218 260H215.347V264H218.218V260Z" fill="#F3525A"/>
<path d="M203.861 260H200.99V264H203.861V260Z" fill="#F3525A"/>
<path d="M189.505 260H186.634V264H189.505V260Z" fill="#F3525A"/>
<path d="M175.149 260H172.277V264H175.149V260Z" fill="#F3525A"/>
<path d="M160.792 260H157.921V264H160.792V260Z" fill="#F3525A"/>
<path d="M146.436 260H143.564V264H146.436V260Z" fill="#F3525A"/>
<path d="M132.079 260H129.208V264H132.079V260Z" fill="#F3525A"/>
<path d="M117.723 260H114.851V264H117.723V260Z" fill="#F3525A"/>
<path d="M103.366 260H100.495V264H103.366V260Z" fill="#F3525A"/>
<path d="M89.0099 260H86.1386V264H89.0099V260Z" fill="#F3525A"/>
<path d="M74.6535 260H71.7822V264H74.6535V260Z" fill="#F3525A"/>
<path d="M60.297 260H57.4258V264H60.297V260Z" fill="#F3525A"/>
<path d="M45.9406 260H43.0693V264H45.9406V260Z" fill="#F3525A"/>
<path d="M31.5842 260H28.7129V264H31.5842V260Z" fill="#F3525A"/>
<path d="M17.2277 260H14.3564V264H17.2277V260Z" fill="#F3525A"/>
<path d="M2.87128 260H0V264H2.87128V260Z" fill="#F3525A"/>
<path d="M290 280H287.129V284H290V280Z" fill="#F3525A"/>
<path d="M275.644 280H272.772V284H275.644V280Z" fill="#F3525A"/>
<path d="M261.287 280H258.416V284H261.287V280Z" fill="#F3525A"/>
<path d="M246.931 280H244.059V284H246.931V280Z" fill="#F3525A"/>
<path d="M232.574 280H229.703V284H232.574V280Z" fill="#F3525A"/>
<path d="M218.218 280H215.347V284H218.218V280Z" fill="#F3525A"/>
<path d="M203.861 280H200.99V284H203.861V280Z" fill="#F3525A"/>
<path d="M189.505 280H186.634V284H189.505V280Z" fill="#F3525A"/>
<path d="M175.149 280H172.277V284H175.149V280Z" fill="#F3525A"/>
<path d="M160.792 280H157.921V284H160.792V280Z" fill="#F3525A"/>
<path d="M146.436 280H143.564V284H146.436V280Z" fill="#F3525A"/>
<path d="M132.079 280H129.208V284H132.079V280Z" fill="#F3525A"/>
<path d="M117.723 280H114.851V284H117.723V280Z" fill="#F3525A"/>
<path d="M103.366 280H100.495V284H103.366V280Z" fill="#F3525A"/>
<path d="M89.0099 280H86.1386V284H89.0099V280Z" fill="#F3525A"/>
<path d="M74.6535 280H71.7822V284H74.6535V280Z" fill="#F3525A"/>
<path d="M60.297 280H57.4258V284H60.297V280Z" fill="#F3525A"/>
<path d="M45.9406 280H43.0693V284H45.9406V280Z" fill="#F3525A"/>
<path d="M31.5842 280H28.7129V284H31.5842V280Z" fill="#F3525A"/>
<path d="M17.2277 280H14.3564V284H17.2277V280Z" fill="#F3525A"/>
<path d="M2.87128 280H0V284H2.87128V280Z" fill="#F3525A"/>
<path d="M290 300H287.129V304H290V300Z" fill="#F3525A"/>
<path d="M275.644 300H272.772V304H275.644V300Z" fill="#F3525A"/>
<path d="M261.287 300H258.416V304H261.287V300Z" fill="#F3525A"/>
<path d="M246.931 300H244.059V304H246.931V300Z" fill="#F3525A"/>
<path d="M232.574 300H229.703V304H232.574V300Z" fill="#F3525A"/>
<path d="M218.218 300H215.347V304H218.218V300Z" fill="#F3525A"/>
<path d="M203.861 300H200.99V304H203.861V300Z" fill="#F3525A"/>
<path d="M189.505 300H186.634V304H189.505V300Z" fill="#F3525A"/>
<path d="M175.149 300H172.277V304H175.149V300Z" fill="#F3525A"/>
<path d="M160.792 300H157.921V304H160.792V300Z" fill="#F3525A"/>
<path d="M146.436 300H143.564V304H146.436V300Z" fill="#F3525A"/>
<path d="M132.079 300H129.208V304H132.079V300Z" fill="#F3525A"/>
<path d="M117.723 300H114.851V304H117.723V300Z" fill="#F3525A"/>
<path d="M103.366 300H100.495V304H103.366V300Z" fill="#F3525A"/>
<path d="M89.0099 300H86.1386V304H89.0099V300Z" fill="#F3525A"/>
<path d="M74.6535 300H71.7822V304H74.6535V300Z" fill="#F3525A"/>
<path d="M60.297 300H57.4258V304H60.297V300Z" fill="#F3525A"/>
<path d="M45.9406 300H43.0693V304H45.9406V300Z" fill="#F3525A"/>
<path d="M31.5842 300H28.7129V304H31.5842V300Z" fill="#F3525A"/>
<path d="M17.2277 300H14.3564V304H17.2277V300Z" fill="#F3525A"/>
<path d="M2.87128 300H0V304H2.87128V300Z" fill="#F3525A"/>
<path d="M290 320H287.129V324H290V320Z" fill="#F3525A"/>
<path d="M275.644 320H272.772V324H275.644V320Z" fill="#F3525A"/>
<path d="M261.287 320H258.416V324H261.287V320Z" fill="#F3525A"/>
<path d="M246.931 320H244.059V324H246.931V320Z" fill="#F3525A"/>
<path d="M232.574 320H229.703V324H232.574V320Z" fill="#F3525A"/>
<path d="M218.218 320H215.347V324H218.218V320Z" fill="#F3525A"/>
<path d="M203.861 320H200.99V324H203.861V320Z" fill="#F3525A"/>
<path d="M189.505 320H186.634V324H189.505V320Z" fill="#F3525A"/>
<path d="M175.149 320H172.277V324H175.149V320Z" fill="#F3525A"/>
<path d="M160.792 320H157.921V324H160.792V320Z" fill="#F3525A"/>
<path d="M146.436 320H143.564V324H146.436V320Z" fill="#F3525A"/>
<path d="M132.079 320H129.208V324H132.079V320Z" fill="#F3525A"/>
<path d="M117.723 320H114.851V324H117.723V320Z" fill="#F3525A"/>
<path d="M103.366 320H100.495V324H103.366V320Z" fill="#F3525A"/>
<path d="M89.0099 320H86.1386V324H89.0099V320Z" fill="#F3525A"/>
<path d="M74.6535 320H71.7822V324H74.6535V320Z" fill="#F3525A"/>
<path d="M60.297 320H57.4258V324H60.297V320Z" fill="#F3525A"/>
<path d="M45.9406 320H43.0693V324H45.9406V320Z" fill="#F3525A"/>
<path d="M31.5842 320H28.7129V324H31.5842V320Z" fill="#F3525A"/>
<path d="M17.2277 320H14.3564V324H17.2277V320Z" fill="#F3525A"/>
<path d="M2.87128 320H0V324H2.87128V320Z" fill="#F3525A"/>
<path d="M290 340H287.129V344H290V340Z" fill="#F3525A"/>
<path d="M275.644 340H272.772V344H275.644V340Z" fill="#F3525A"/>
<path d="M261.287 340H258.416V344H261.287V340Z" fill="#F3525A"/>
<path d="M246.931 340H244.059V344H246.931V340Z" fill="#F3525A"/>
<path d="M232.574 340H229.703V344H232.574V340Z" fill="#F3525A"/>
<path d="M218.218 340H215.347V344H218.218V340Z" fill="#F3525A"/>
<path d="M203.861 340H200.99V344H203.861V340Z" fill="#F3525A"/>
<path d="M189.505 340H186.634V344H189.505V340Z" fill="#F3525A"/>
<path d="M175.149 340H172.277V344H175.149V340Z" fill="#F3525A"/>
<path d="M160.792 340H157.921V344H160.792V340Z" fill="#F3525A"/>
<path d="M146.436 340H143.564V344H146.436V340Z" fill="#F3525A"/>
<path d="M132.079 340H129.208V344H132.079V340Z" fill="#F3525A"/>
<path d="M117.723 340H114.851V344H117.723V340Z" fill="#F3525A"/>
<path d="M103.366 340H100.495V344H103.366V340Z" fill="#F3525A"/>
<path d="M89.0099 340H86.1386V344H89.0099V340Z" fill="#F3525A"/>
<path d="M74.6535 340H71.7822V344H74.6535V340Z" fill="#F3525A"/>
<path d="M60.297 340H57.4258V344H60.297V340Z" fill="#F3525A"/>
<path d="M45.9406 340H43.0693V344H45.9406V340Z" fill="#F3525A"/>
<path d="M31.5842 340H28.7129V344H31.5842V340Z" fill="#F3525A"/>
<path d="M17.2277 340H14.3564V344H17.2277V340Z" fill="#F3525A"/>
<path d="M2.87128 340H0V344H2.87128V340Z" fill="#F3525A"/>
<path d="M290 360H287.129V364H290V360Z" fill="#F3525A"/>
<path d="M275.644 360H272.772V364H275.644V360Z" fill="#F3525A"/>
<path d="M261.287 360H258.416V364H261.287V360Z" fill="#F3525A"/>
<path d="M246.931 360H244.059V364H246.931V360Z" fill="#F3525A"/>
<path d="M232.574 360H229.703V364H232.574V360Z" fill="#F3525A"/>
<path d="M218.218 360H215.347V364H218.218V360Z" fill="#F3525A"/>
<path d="M203.861 360H200.99V364H203.861V360Z" fill="#F3525A"/>
<path d="M189.505 360H186.634V364H189.505V360Z" fill="#F3525A"/>
<path d="M175.149 360H172.277V364H175.149V360Z" fill="#F3525A"/>
<path d="M160.792 360H157.921V364H160.792V360Z" fill="#F3525A"/>
<path d="M146.436 360H143.564V364H146.436V360Z" fill="#F3525A"/>
<path d="M132.079 360H129.208V364H132.079V360Z" fill="#F3525A"/>
<path d="M117.723 360H114.851V364H117.723V360Z" fill="#F3525A"/>
<path d="M103.366 360H100.495V364H103.366V360Z" fill="#F3525A"/>
<path d="M89.0099 360H86.1386V364H89.0099V360Z" fill="#F3525A"/>
<path d="M74.6535 360H71.7822V364H74.6535V360Z" fill="#F3525A"/>
<path d="M60.297 360H57.4258V364H60.297V360Z" fill="#F3525A"/>
<path d="M45.9406 360H43.0693V364H45.9406V360Z" fill="#F3525A"/>
<path d="M31.5842 360H28.7129V364H31.5842V360Z" fill="#F3525A"/>
<path d="M17.2277 360H14.3564V364H17.2277V360Z" fill="#F3525A"/>
<path d="M2.87128 360H0V364H2.87128V360Z" fill="#F3525A"/>
<path d="M290 380H287.129V384H290V380Z" fill="#F3525A"/>
<path d="M275.644 380H272.772V384H275.644V380Z" fill="#F3525A"/>
<path d="M261.287 380H258.416V384H261.287V380Z" fill="#F3525A"/>
<path d="M246.931 380H244.059V384H246.931V380Z" fill="#F3525A"/>
<path d="M232.574 380H229.703V384H232.574V380Z" fill="#F3525A"/>
<path d="M218.218 380H215.347V384H218.218V380Z" fill="#F3525A"/>
<path d="M203.861 380H200.99V384H203.861V380Z" fill="#F3525A"/>
<path d="M189.505 380H186.634V384H189.505V380Z" fill="#F3525A"/>
<path d="M175.149 380H172.277V384H175.149V380Z" fill="#F3525A"/>
<path d="M160.792 380H157.921V384H160.792V380Z" fill="#F3525A"/>
<path d="M146.436 380H143.564V384H146.436V380Z" fill="#F3525A"/>
<path d="M132.079 380H129.208V384H132.079V380Z" fill="#F3525A"/>
<path d="M117.723 380H114.851V384H117.723V380Z" fill="#F3525A"/>
<path d="M103.366 380H100.495V384H103.366V380Z" fill="#F3525A"/>
<path d="M89.0099 380H86.1386V384H89.0099V380Z" fill="#F3525A"/>
<path d="M74.6535 380H71.7822V384H74.6535V380Z" fill="#F3525A"/>
<path d="M60.297 380H57.4258V384H60.297V380Z" fill="#F3525A"/>
<path d="M45.9406 380H43.0693V384H45.9406V380Z" fill="#F3525A"/>
<path d="M31.5842 380H28.7129V384H31.5842V380Z" fill="#F3525A"/>
<path d="M17.2277 380H14.3564V384H17.2277V380Z" fill="#F3525A"/>
<path d="M2.87128 380H0V384H2.87128V380Z" fill="#F3525A"/>
<path d="M290 400H287.129V404H290V400Z" fill="#F3525A"/>
<path d="M275.644 400H272.772V404H275.644V400Z" fill="#F3525A"/>
<path d="M261.287 400H258.416V404H261.287V400Z" fill="#F3525A"/>
<path d="M246.931 400H244.059V404H246.931V400Z" fill="#F3525A"/>
<path d="M232.574 400H229.703V404H232.574V400Z" fill="#F3525A"/>
<path d="M218.218 400H215.347V404H218.218V400Z" fill="#F3525A"/>
<path d="M203.861 400H200.99V404H203.861V400Z" fill="#F3525A"/>
<path d="M189.505 400H186.634V404H189.505V400Z" fill="#F3525A"/>
<path d="M175.149 400H172.277V404H175.149V400Z" fill="#F3525A"/>
<path d="M160.792 400H157.921V404H160.792V400Z" fill="#F3525A"/>
<path d="M146.436 400H143.564V404H146.436V400Z" fill="#F3525A"/>
<path d="M132.079 400H129.208V404H132.079V400Z" fill="#F3525A"/>
<path d="M117.723 400H114.851V404H117.723V400Z" fill="#F3525A"/>
<path d="M103.366 400H100.495V404H103.366V400Z" fill="#F3525A"/>
<path d="M89.0099 400H86.1386V404H89.0099V400Z" fill="#F3525A"/>
<path d="M74.6535 400H71.7822V404H74.6535V400Z" fill="#F3525A"/>
<path d="M60.297 400H57.4258V404H60.297V400Z" fill="#F3525A"/>
<path d="M45.9406 400H43.0693V404H45.9406V400Z" fill="#F3525A"/>
<path d="M31.5842 400H28.7129V404H31.5842V400Z" fill="#F3525A"/>
<path d="M17.2277 400H14.3564V404H17.2277V400Z" fill="#F3525A"/>
<path d="M2.87128 400H0V404H2.87128V400Z" fill="#F3525A"/>
</svg>
