<svg width="61" height="55" viewBox="0 0 61 55" fill="none" xmlns="http://www.w3.org/2000/svg">
<path d="M18.6875 40.3125V46.2188H42.3125V16.6875H8.84375V46.2188" stroke="#1270FF" stroke-width="2" stroke-miterlimit="10" stroke-linecap="square"/>
<path d="M59.0469 45.2344V9.79688C59.0469 7.7083 58.2172 5.70526 56.7403 4.22841C55.2635 2.75156 53.2605 1.92188 51.1719 1.92188H49.2031V37.3594H50.8766C52.7251 37.3251 54.5294 37.927 55.9871 39.0642C57.4449 40.2014 58.4678 41.8049 58.8845 43.6062C59.1253 44.7537 59.1071 45.9404 58.8313 47.08C58.5555 48.2195 58.0291 49.2833 57.2902 50.1936C56.5514 51.104 55.6188 51.8381 54.5604 52.3425C53.5019 52.8469 52.3443 53.1089 51.1719 53.1094H1.95312V9.79688H44.2812" stroke="#1270FF" stroke-width="2" stroke-miterlimit="10"/>
<path d="M26.5625 16.6875V30.4688H18.6875" stroke="#1270FF" stroke-width="2" stroke-miterlimit="10" stroke-linecap="square"/>
</svg>
