<svg width="39" height="51" viewBox="0 0 39 51" fill="none" xmlns="http://www.w3.org/2000/svg">
<path d="M22.8938 2.64384L22.1867 3.35095L22.1867 3.35095L22.8938 2.64384ZM37.1062 16.8562L37.8133 16.149L37.8133 16.149L37.1062 16.8562ZM14.25 48.125C13.6977 48.125 13.25 48.5727 13.25 49.125C13.25 49.6773 13.6977 50.125 14.25 50.125V48.125ZM0.125 36C0.125 36.5523 0.572715 37 1.125 37C1.67728 37 2.125 36.5523 2.125 36H0.125ZM0.417893 48.4179C0.0273689 48.8084 0.0273689 49.4416 0.417893 49.8321C0.808417 50.2226 1.44158 50.2226 1.83211 49.8321L0.417893 48.4179ZM6.375 2.875H21.0377V0.875H6.375V2.875ZM36.875 18.7123V43.875H38.875V18.7123H36.875ZM22.1867 3.35095L36.3991 17.5633L37.8133 16.149L23.601 1.93674L22.1867 3.35095ZM38.875 18.7123C38.875 17.7509 38.4931 16.8289 37.8133 16.149L36.3991 17.5633C36.7038 17.868 36.875 18.2813 36.875 18.7123H38.875ZM21.0377 2.875C21.4687 2.875 21.882 3.04621 22.1867 3.35095L23.601 1.93674C22.9211 1.25692 21.9991 0.875 21.0377 0.875V2.875ZM32.625 50.125C36.0768 50.125 38.875 47.3268 38.875 43.875H36.875C36.875 46.2222 34.9722 48.125 32.625 48.125V50.125ZM2.125 7.125C2.125 4.77779 4.02779 2.875 6.375 2.875V0.875C2.92322 0.875 0.125 3.67322 0.125 7.125H2.125ZM32.625 48.125H14.25V50.125H32.625V48.125ZM2.125 36V7.125H0.125V36H2.125ZM26.375 30.75C26.375 34.547 23.297 37.625 19.5 37.625V39.625C24.4015 39.625 28.375 35.6515 28.375 30.75H26.375ZM12.625 30.75C12.625 26.953 15.703 23.875 19.5 23.875V21.875C14.5985 21.875 10.625 25.8485 10.625 30.75H12.625ZM19.5 23.875C23.297 23.875 26.375 26.953 26.375 30.75H28.375C28.375 25.8485 24.4015 21.875 19.5 21.875V23.875ZM13.2244 35.6114L0.417893 48.4179L1.83211 49.8321L14.6386 37.0256L13.2244 35.6114ZM19.5 37.625C17.6012 37.625 15.8839 36.8566 14.6386 35.6114L13.2244 37.0256C14.8294 38.6305 17.0495 39.625 19.5 39.625V37.625ZM14.6386 35.6114C13.3934 34.3661 12.625 32.6488 12.625 30.75H10.625C10.625 33.2005 11.6195 35.4206 13.2244 37.0256L14.6386 35.6114Z" fill="#1270FF"/>
</svg>
